inDegrees=yes
name=ik_S46_A04_T01
DataType=double
version=3
OpenSimVersion=4.3-2021-08-27-4bc7ad9
endheader
time	pelvis_tilt	pelvis_list	pelvis_rotation	pelvis_tx	pelvis_ty	pelvis_tz	hip_flexion_r	hip_adduction_r	hip_rotation_r	knee_angle_r	knee_angle_r_beta	ankle_angle_r	subtalar_angle_r	mtp_angle_r	hip_flexion_l	hip_adduction_l	hip_rotation_l	knee_angle_l	knee_angle_l_beta	ankle_angle_l	subtalar_angle_l	mtp_angle_l	lumbar_extension	lumbar_bending	lumbar_rotation	arm_flex_r	arm_add_r	arm_rot_r	elbow_flex_r	pro_sup_r	wrist_flex_r	wrist_dev_r	arm_flex_l	arm_add_l	arm_rot_l	elbow_flex_l	pro_sup_l	wrist_flex_l	wrist_dev_l
4.879999999999984	2.794178521553638	0.03599284535538031	32.22991677883586	0	0.9399999999999999	0	-4.785149272626066	-7.610523939009187	-12.00779127026142	-3.31284397923809	-0.05782003504257533	0	0	0	-2.23048999789709	-6.565044618584466	-9.658652741815136	-1.189468172645045	-0.02076013596033638	0	0	0	0	0	0	22.1222776348046	-22.1222776348046	3.42579283921539	64.14071395437537	86.57420735601265	0	0	22.1222776348046	-22.1222776348046	3.42579283921539	64.14071395437537	86.5742073557187	0	0
4.899999999999983	2.833386524449058	0.02653838483617286	32.14805381324248	0	0.9399999999999999	0	-4.911425245880618	-7.596109430154733	-12.09629323627343	-3.322804209588273	-0.0579938738564431	0	0	0	-2.381339268247777	-6.526451711948679	-9.776028867522216	-1.168023272852164	-0.02038585185119035	0	0	0	0	0	0	22.12415778783351	-22.12415778783351	3.426045303353296	64.14422484795392	86.57395489188868	0	0	22.12415778783351	-22.12415778783351	3.426045303353296	64.14422484795392	86.57395489159478	0	0
4.919999999999983	2.893369337514884	0.001091803105748314	32.03613296171743	0	0.9399999999999999	0	-5.033170196427816	-7.575177334469786	-12.18932427091135	-3.313021163008082	-0.05782312748274279	0	0	0	-2.541545942058073	-6.525472074511191	-9.949740193840567	-1.149338504984108	-0.02005974113192195	0	0	0	0	0	0	22.12566642655592	-22.12566642655592	3.42624750374081	64.14703591139586	86.57375269151228	0	0	22.12566642655592	-22.12566642655592	3.42624750374081	64.14703591139586	86.57375269121844	0	0
4.939999999999983	3.037360012129308	0.07817188564447987	31.91386441366876	0	0.9399999999999999	0	-5.236754992089786	-7.583063027408497	-12.24718429089272	-3.265559074952494	-0.05699475777630131	0	0	0	-2.812208616548372	-6.480535780065764	-10.01153320959473	-1.13414685230641	-0.01979459677387669	0	0	0	0	0	0	22.12739251106467	-22.12739251106467	3.426479227709507	64.15025814084082	86.57352096755631	0	0	22.12739251106467	-22.12739251106467	3.426479227709507	64.15025814084082	86.57352096726254	0	0
4.959999999999982	3.095720274074546	0.1087759936011535	31.90085211079031	0	0.9399999999999999	0	-5.332043421412141	-7.592347554318602	-12.40463852072898	-3.173908258898221	-0.05539514927401456	0	0	0	-2.968544239797267	-6.446435126551179	-9.934288838600562	-1.17029640687146	-0.02042552552416616	0	0	0	0	0	0	22.12993781195547	-22.12993781195547	3.426822072552993	64.15502795129609	86.57317812273173	0	0	22.12993781195547	-22.12993781195547	3.426822072552993	64.15502795129609	86.57317812243801	0	0
4.979999999999982	3.155319248557801	0.1434260535520924	31.79879203976954	0	0.9399999999999999	0	-5.37013229629403	-7.619278795513691	-12.35744238722963	-3.116013001649283	-0.05438468641373148	0	0	0	-3.099629792102263	-6.439518964065837	-9.91435087227555	-1.165197548136431	-0.02033653365114584	0	0	0	0	0	0	22.13108957256064	-22.13108957256064	3.426976359328296	64.15717259957535	86.5730238359649	0	0	22.13108957256064	-22.13108957256064	3.426976359328296	64.15717259957535	86.57302383567119	0	0
4.999999999999981	3.226808867984854	0.1669209590395664	31.6534007233619	0	0.9399999999999999	0	-5.426390389431146	-7.634477683916596	-12.22930640866529	-3.06958607368024	-0.05357438365908545	0	0	0	-3.181715046523075	-6.430253244337039	-9.876586979086101	-1.152778992058235	-0.02011978895923776	0	0	0	0	0	0	22.13199740199774	-22.13199740199774	3.427097617435409	64.158857378688	86.57290257786447	0	0	22.13199740199774	-22.13199740199774	3.427097617435409	64.158857378688	86.57290257757076	0	0
5.019999999999981	3.293408370318359	0.2243557855843092	31.51238379756765	0	0.9399999999999999	0	-5.487612769690497	-7.65856404747062	-12.08920405828162	-3.031505421843447	-0.05290975090322778	0	0	0	-3.285827663721186	-6.381781167284839	-9.898254572150586	-1.126636794177792	-0.01966352153251616	0	0	0	0	0	0	22.13318757666827	-22.13318757666827	3.427256566886929	64.16106577914769	86.5727436284217	0	0	22.13318757666827	-22.13318757666827	3.427256566886929	64.16106577914769	86.57274362812802	0	0
5.03999999999998	3.275260668186532	0.2585680934698314	31.32830813956224	0	0.9399999999999999	0	-5.484548710398521	-7.750682509697683	-11.94688548902425	-3.014630448616463	-0.05261522705923101	0	0	0	-3.306555766766629	-6.318119909551267	-10.01983718858678	-1.107705763294929	-0.01933311271281347	0	0	0	0	0	0	22.13489291809742	-22.13489291809742	3.427484785780513	64.16423756267994	86.57251540954073	0	0	22.13489291809742	-22.13489291809742	3.427484785780513	64.16423756267994	86.57251540924707	0	0
5.05999999999998	3.2784600392925	0.2481316405376987	31.30128123065221	0	0.9399999999999999	0	-5.490434147581264	-7.784411684369993	-12.10608954772793	-3.013259973912057	-0.05259130776332384	0	0	0	-3.307785524697763	-6.322761928301101	-10.07323490563699	-1.096178613268359	-0.01913192599147847	0	0	0	0	0	0	22.13558113111162	-22.13558113111161	3.427576561193795	64.16551236093619	86.57242363413252	0	0	22.13558113111162	-22.13558113111161	3.427576561193795	64.16551236093619	86.57242363383887	0	0
5.07999999999998	3.237201890882554	0.2251506698388832	31.25108469559345	0	0.9399999999999999	0	-5.440547643291256	-7.790720012269611	-12.07372918753036	-3.024017659850993	-0.05277906480285377	0	0	0	-3.24853696156556	-6.307552767069386	-10.12576299430067	-1.039846225602441	-0.01814874035119834	0	0	0	0	0	0	22.18504649427879	-22.18504649427879	3.433702710892233	64.24846722534156	86.56629748476651	0	0	22.18504649427879	-22.18504649427879	3.433702710892233	64.24846722534156	86.56629748447401	0	0
5.099999999999979	3.249542413036939	0.1897665144012986	31.1671776045974	0	0.9399999999999999	0	-5.414785638309222	-7.801923536528363	-12.12532765599545	-3.033045035166252	-0.05293662222491829	0	0	0	-3.239783643686861	-6.302413188774779	-10.1989809483523	-1.039132311126723	-0.01813628019301943	0	0	0	0	0	0	22.18536637729724	-22.18536637729724	3.433744681060094	64.24904862261113	86.56625551460094	0	0	22.18536637729724	-22.18536637729724	3.433744681060094	64.24904862261113	86.56625551430845	0	0
5.119999999999979	3.319801716634895	0.107363925382053	30.85853392051223	0	0.9399999999999999	0	-5.380096680960627	-7.71816293542005	-11.79895324629922	-3.067354424708678	-0.05353543403678294	0	0	0	-3.250967643197916	-6.357907111001799	-10.36173679679613	-1.031088446420472	-0.01799588826931037	0	0	0	0	0	0	22.18695601618038	-22.18695601618037	3.433956865838898	64.2519956936429	86.56604332983382	0	0	22.18695601618038	-22.18695601618037	3.433956865838898	64.2519956936429	86.56604332954136	0	0
5.139999999999978	3.373234077226171	0.0945385858492942	30.76741537669347	0	0.9399999999999999	0	-5.257816721424513	-7.792420107999322	-11.76990060451877	-3.052211997247387	-0.05327114882083901	0	0	0	-3.247545502736472	-6.386645697554593	-10.19425156200383	-1.025567793287465	-0.01789953469527887	0	0	0	0	0	0	22.1875409938532	-22.1875409938532	3.434034756052681	64.25307711269404	86.56596543962434	0	0	22.1875409938532	-22.1875409938532	3.434034756052681	64.25307711269404	86.56596543933188	0	0
5.159999999999978	3.341070561784573	0.06103001824208409	30.72378157155996	0	0.9399999999999999	0	-5.107915962236769	-7.837609712656792	-11.77017889396886	-2.953071672169755	-0.05154082372673682	0	0	0	-3.104190900733931	-6.387656433785266	-10.01339334155007	-1.003224449283812	-0.01750956977650939	0	0	0	0	0	0	22.19023262180182	-22.19023262180181	3.434396478333029	64.25810623977682	86.56560371736391	0	0	22.19023262180182	-22.19023262180181	3.434396478333029	64.25810623977682	86.56560371707154	0	0
5.179999999999978	3.312872498492986	0.04061889948943912	30.67763264644225	0	0.9399999999999999	0	-4.955779102800697	-7.888029507988811	-11.74474565609419	-2.874117369393188	-0.05016281118466923	0	0	0	-2.963655628130935	-6.388453095912753	-9.872223953581148	-0.9540108063311064	-0.01665062967008377	0	0	0	0	0	0	22.19305214629759	-22.19305214629759	3.434775281305258	64.26337251860279	86.56522491441258	0	0	22.19305214629759	-22.19305214629759	3.434775281305258	64.26337251860279	86.56522491412029	0	0
